<mxfile host="app.diagrams.net" modified="2021-11-11T09:51:10.028Z" agent="5.0 (Windows NT 10.0; Win64; x64) AppleWebKit/537.36 (KHTML, like Gecko) Chrome/95.0.4638.69 Safari/537.36 Edg/95.0.1020.44" etag="5i6Zsoov_iOnDdAGWENy" version="15.7.0" type="github">
  <diagram id="LW-kfNWGcV2sWXvCd-RO" name="第 1 页">
    <mxGraphModel dx="1159" dy="713" grid="1" gridSize="10" guides="1" tooltips="1" connect="1" arrows="1" fold="1" page="1" pageScale="1" pageWidth="827" pageHeight="1169" math="0" shadow="0">
      <root>
        <mxCell id="0" />
        <mxCell id="1" parent="0" />
        <mxCell id="9X81ClNAljNY7smqvJx3-3" value="OUIdService" style="rounded=1;whiteSpace=wrap;html=1;" vertex="1" parent="1">
          <mxGeometry x="310" y="270" width="100" height="30" as="geometry" />
        </mxCell>
        <mxCell id="9X81ClNAljNY7smqvJx3-4" value="OUIdService" style="rounded=1;whiteSpace=wrap;html=1;" vertex="1" parent="1">
          <mxGeometry x="450" y="270" width="100" height="30" as="geometry" />
        </mxCell>
        <mxCell id="9X81ClNAljNY7smqvJx3-5" value="OUIdService" style="rounded=1;whiteSpace=wrap;html=1;" vertex="1" parent="1">
          <mxGeometry x="580" y="270" width="100" height="30" as="geometry" />
        </mxCell>
        <mxCell id="9X81ClNAljNY7smqvJx3-9" style="rounded=0;orthogonalLoop=1;jettySize=auto;html=1;exitX=0.5;exitY=1;exitDx=0;exitDy=0;entryX=0.25;entryY=0;entryDx=0;entryDy=0;" edge="1" parent="1" source="9X81ClNAljNY7smqvJx3-6" target="9X81ClNAljNY7smqvJx3-3">
          <mxGeometry relative="1" as="geometry" />
        </mxCell>
        <mxCell id="9X81ClNAljNY7smqvJx3-6" value="" style="ellipse;whiteSpace=wrap;html=1;" vertex="1" parent="1">
          <mxGeometry x="370" y="70" width="90" height="50" as="geometry" />
        </mxCell>
        <mxCell id="9X81ClNAljNY7smqvJx3-7" value="" style="ellipse;whiteSpace=wrap;html=1;" vertex="1" parent="1">
          <mxGeometry x="550" y="70" width="90" height="50" as="geometry" />
        </mxCell>
      </root>
    </mxGraphModel>
  </diagram>
</mxfile>
